<svg width="138" height="26" fill="none" xmlns="http://www.w3.org/2000/svg"><path d="M120.642.399a.899.899 0 00-.899.899V7.6h16.648L128.809.4l-8.167-.001zm16.359 9.107a.895.895 0 00-.899-.898h-6.301v16.649l7.197-7.585.003-8.166zm-9.11 16.354a.9.9 0 00.898-.9v-6.3H112.14l7.583 7.2h8.168zm-16.359-9.107a.9.9 0 00.9.902h6.3V1.005l-7.199 7.583-.001 8.165zM35.223 3.438v7.689H24.51V3.438l-3.901-.003V22.82h3.901v-8.329h10.712v8.329h3.907V3.438h-3.907zm51.902 0v19.378h17.116l-2.168-3.411H91.037v-4.913h10.687v-3.286H91.037V6.77h11.018l2.123-3.332H87.125zM6.108 3.433C2.05 3.433 0 5.901 0 9.49v7.237c0 4.154 2.641 6.094 6.088 6.094l12.24-.001-2.27-3.544H6.845c-1.958 0-2.81-.707-2.81-2.898V9.812c0-2.118.717-2.944 2.862-2.944h9.259l2.179-3.435H6.108zm63.894-.004c-2.344 0-4.746 1.409-4.746 5.032v.931c0 3.778 2.311 5.219 4.623 5.229h8.118c.843 0 1.528.14 1.528 1.565l-.002 1.646c-.021 1.28-.66 1.573-1.555 1.573H67.289l-2.187 3.411h13.117c3.163 0 5.31-1.573 5.31-5.208v-1.336c0-3.515-1.995-5.175-5.088-5.175h-7.75c-.86 0-1.459-.235-1.459-1.507V8.25c0-1.085.41-1.48 1.412-1.48l10.17-.004 2.125-3.342-12.937.005zm-19.537.009L41.273 22.82h4.345l1.79-4.003h9.988l1.785 4.003h4.363L54.331 3.438h-3.866zm1.928 4.025l3.532 8.055h-7.042l3.51-8.055z" fill="#A1A89D"/></svg>