<svg width="122" height="25" fill="none"><path fill-rule="evenodd" clip-rule="evenodd" d="M18.704 5.757a5.667 5.667 0 01-5.67 5.665 5.667 5.667 0 01-5.668-5.665A5.667 5.667 0 0113.035.092a5.667 5.667 0 015.669 5.665zM5.67 12.838a5.667 5.667 0 00-5.669 5.665 5.667 5.667 0 005.67 5.665 5.667 5.667 0 005.669-5.665 5.667 5.667 0 00-5.67-5.665zm14.73 0a5.667 5.667 0 00-5.67 5.665 5.667 5.667 0 005.67 5.665 5.667 5.667 0 005.668-5.665 5.667 5.667 0 00-5.669-5.665zm25.615 5.6c.074.84.747 1.91 1.912 1.91h.682a.483.483 0 00.481-.481V4.881h-.003a.48.48 0 00-.478-.455h-2.113a.481.481 0 00-.478.455h-.003V6.1c-1.295-1.595-3.336-2.257-5.383-2.257a8.424 8.424 0 00-8.424 8.425 8.424 8.424 0 008.424 8.425c2.047 0 4.278-.794 5.383-2.256v.002zm-5.374-.695c-2.96 0-5.358-2.451-5.358-5.476 0-3.024 2.399-5.476 5.358-5.476 2.959 0 5.357 2.452 5.357 5.476s-2.398 5.476-5.357 5.476zm39.799.694c.075.84.747 1.91 1.913 1.91h.682c.264 0 .48-.216.48-.48V4.88h-.002a.48.48 0 00-.478-.455h-2.113a.481.481 0 00-.479.455h-.002v1.217c-1.295-1.594-3.336-2.256-5.383-2.256a8.424 8.424 0 00-8.424 8.424 8.424 8.424 0 008.424 8.425c2.047 0 4.278-.794 5.382-2.256v.002zm-5.374-.694c-2.959 0-5.358-2.452-5.358-5.477 0-3.024 2.4-5.476 5.358-5.476 2.96 0 5.358 2.452 5.358 5.476 0 3.025-2.399 5.477-5.358 5.477zm43.859.694c.074.84.746 1.91 1.912 1.91h.682a.483.483 0 00.481-.48V4.88h-.003a.481.481 0 00-.478-.455h-2.113a.481.481 0 00-.479.455h-.002v1.217c-1.295-1.594-3.336-2.256-5.383-2.256a8.425 8.425 0 000 16.85c2.047 0 4.278-.795 5.382-2.257l.001.002zm-5.375-.694c-2.959 0-5.357-2.452-5.357-5.477 0-3.024 2.398-5.476 5.357-5.476s5.358 2.452 5.358 5.476c0 3.025-2.399 5.477-5.358 5.477zm-11.105 1.211l-.001-7.755h.001c0-4.371-2.758-7.32-7.155-7.32-2.1 0-3.82 1.214-4.428 2.257-.131-.816-.564-1.673-1.907-1.673h-.684a.482.482 0 00-.48.481v14.987h.002a.481.481 0 00.478.455h2.113a.494.494 0 00.095-.01c.014-.003.027-.008.04-.012.016-.005.033-.009.048-.015.019-.008.036-.018.053-.028l.026-.014a.483.483 0 00.059-.047l.01-.008a.475.475 0 00.148-.32h.002v-8.853a4.251 4.251 0 018.502 0l.002 7.4v-.003l.002.02v1.435h.003a.481.481 0 00.478.455h2.113a.502.502 0 00.095-.01c.012-.002.024-.007.036-.01.017-.006.035-.01.051-.017.018-.007.033-.017.05-.026l.03-.016a.558.558 0 00.055-.044l.013-.011a.487.487 0 00.055-.062l.003-.005a.483.483 0 00.09-.252v-.002h.003v-.977h-.001zm-48.308-2.663c1.41.977 2.95 1.452 4.43 1.452 1.41 0 2.867-.73 2.867-2.003 0-1.698-3.176-1.962-5.17-2.64-1.996-.678-3.715-2.08-3.715-4.35 0-3.474 3.095-4.908 5.984-4.908 1.83 0 3.718.603 4.942 1.468.422.32.165.686.165.686l-1.168 1.67c-.132.187-.361.35-.691.146-.33-.203-1.486-1.022-3.248-1.022-1.763 0-2.825.814-2.825 1.823 0 1.21 1.38 1.59 2.997 2.003 2.816.759 5.888 1.671 5.888 5.124 0 3.06-2.862 4.952-6.026 4.952-2.398 0-4.439-.683-6.15-1.94-.358-.357-.108-.688-.108-.688l1.163-1.66c.236-.311.534-.203.665-.113z" fill="#A1A89D"/></svg>