<svg width="99" height="33" fill="none"><path d="M41.938 16.977c0 4.64-3.631 8.06-8.087 8.06-4.456 0-8.087-3.42-8.087-8.06 0-4.674 3.631-8.062 8.087-8.062 4.456 0 8.087 3.388 8.087 8.062zm-3.54 0c0-2.9-2.105-4.885-4.547-4.885-2.442 0-4.547 1.984-4.547 4.885 0 2.87 2.105 4.884 4.547 4.884 2.443 0 4.547-2.017 4.547-4.884zm20.985 0c0 4.64-3.63 8.06-8.086 8.06s-8.087-3.42-8.087-8.06c0-4.67 3.63-8.062 8.087-8.062 4.456 0 8.087 3.388 8.087 8.062zm-3.54 0c0-2.9-2.104-4.885-4.546-4.885-2.443 0-4.547 1.984-4.547 4.885 0 2.87 2.104 4.884 4.547 4.884 2.442 0 4.547-2.017 4.547-4.884zm20.259-7.575v14.473c0 5.953-3.51 8.385-7.661 8.385-3.907 0-6.259-2.614-7.146-4.75l3.082-1.284c.549 1.312 1.894 2.86 4.06 2.86 2.657 0 4.303-1.638 4.303-4.724v-1.16h-.123c-.793.978-2.32 1.832-4.246 1.832-4.03 0-7.723-3.51-7.723-8.028 0-4.55 3.693-8.09 7.723-8.09 1.923 0 3.45.853 4.246 1.802h.123V9.406h3.362v-.004zm-3.111 7.604c0-2.839-1.894-4.914-4.303-4.914-2.443 0-4.489 2.075-4.489 4.914 0 2.81 2.046 4.855 4.489 4.855 2.41 0 4.303-2.046 4.303-4.855zM81.645.92v23.624h-3.453V.919h3.453zm13.456 18.71l2.748 1.832c-.887 1.312-3.024 3.573-6.717 3.573-4.58 0-8-3.54-8-8.062 0-4.793 3.45-8.06 7.604-8.06 4.183 0 6.23 3.328 6.898 5.127l.367.916-10.776 4.463c.825 1.618 2.108 2.443 3.907 2.443 1.803 0 3.053-.887 3.969-2.232zm-8.457-2.9l7.203-2.991c-.396-1.007-1.588-1.709-2.991-1.709-1.8 0-4.303 1.589-4.212 4.7zm-73.949-1.85v-3.42H24.22c.113.596.17 1.3.17 2.064 0 2.566-.7 5.739-2.961 8-2.2 2.29-5.009 3.51-8.73 3.51-6.899 0-12.7-5.619-12.7-12.517S5.8 0 12.7 0c3.816 0 6.534 1.497 8.577 3.45l-2.413 2.412c-1.465-1.373-3.45-2.442-6.168-2.442-5.037 0-8.977 4.06-8.977 9.097 0 5.038 3.94 9.097 8.977 9.097 3.267 0 5.128-1.312 6.32-2.504.967-.967 1.603-2.348 1.854-4.234l-8.174.004z" fill="#A1A89D"/></svg>