<svg width="121" height="21" fill="none"><path d="M11.875 10.397c.955.076 1.757.458 2.444 1.184.687.725 1.03 1.718 1.03 2.978 0 1.527-.496 2.787-1.527 3.703-1.03.916-2.481 1.375-4.428 1.375H0V1.539h9.354c1.642 0 2.978.458 3.971 1.336.993.917 1.49 2.1 1.49 3.59 0 1.145-.306 2.023-.955 2.71-.65.687-1.299 1.031-2.024 1.107l.038.115zM4.468 9.022h3.895c.649 0 1.183-.19 1.603-.572.382-.382.611-.84.611-1.49 0-.572-.19-.992-.572-1.336-.382-.343-.879-.496-1.451-.496H4.468v3.894zm4.124 7.026c.687 0 1.26-.191 1.641-.535.382-.344.573-.84.573-1.489 0-.61-.19-1.069-.61-1.413-.382-.343-.917-.534-1.528-.534h-4.2v3.97h4.124zm22.22 3.589h-4.314v-1.299c-1.069 1.146-2.481 1.718-4.161 1.718-1.604 0-2.864-.534-3.818-1.565-.955-1.03-1.451-2.405-1.451-4.085V6.083h4.276v7.407c0 .801.229 1.45.649 1.947.42.496.993.725 1.68.725.878 0 1.565-.305 2.062-.916.496-.611.725-1.566.725-2.864v-6.3h4.314l.039 13.555zm13.326 0H32.683v-.802l5.384-9.316h-5.23V6.083H44.06v.801L38.678 16.2h5.421v3.437h.039zm13.286 0H46.008v-.802l5.345-9.316h-5.23V6.083h11.225v.801L51.964 16.2h5.422l.038 3.437zM63.838 9.29h7.827v3.894h-7.827v6.49h-4.467V1.54h12.982v3.895h-8.515V9.29zm39.479 4.696H93.39c.267 1.68 1.527 2.634 3.398 2.634 1.489 0 2.978-.572 4.085-1.45l1.642 2.863c-1.527 1.298-3.475 2.023-5.727 2.023-4.544 0-7.636-2.748-7.636-7.177 0-2.1.687-3.818 2.061-5.155 1.375-1.336 3.093-2.023 5.117-2.023 1.947 0 3.588.649 4.925 1.985 1.336 1.336 2.023 3.055 2.062 5.23v1.07zm-8.744-4.238a2.9 2.9 0 00-1.107 1.565h5.574c-.19-.687-.534-1.222-1.03-1.603a2.928 2.928 0 00-1.68-.535 2.93 2.93 0 00-1.757.573zm-7.063 4.238h-9.927c.267 1.68 1.527 2.634 3.398 2.634 1.49 0 2.978-.572 4.086-1.45l1.641 2.863c-1.527 1.298-3.474 2.023-5.727 2.023-4.543 0-7.636-2.748-7.636-7.177 0-2.1.688-3.818 2.062-5.155 1.374-1.336 3.093-2.023 5.116-2.023 1.947 0 3.589.649 4.925 1.985 1.337 1.336 2.024 3.055 2.062 5.23v1.07zm-8.743-4.238a2.9 2.9 0 00-1.107 1.565h5.574c-.191-.687-.535-1.222-1.031-1.603a2.928 2.928 0 00-1.68-.535c-.649 0-1.222.191-1.756.573zM120 19.637h-4.314v-1.07c-1.107.993-2.482 1.49-4.2 1.49-1.833 0-3.398-.688-4.696-2.024-1.298-1.336-1.947-3.054-1.947-5.154s.649-3.818 1.947-5.155c1.298-1.336 2.863-2.023 4.696-2.023 1.718 0 3.131.496 4.2 1.489V.203H120v19.433zm-5.269-4.238c.649-.65.993-1.49.993-2.52 0-.993-.344-1.833-.993-2.52-.649-.65-1.45-.993-2.329-.993-.954 0-1.718.344-2.329.993-.61.649-.916 1.489-.916 2.52 0 1.03.306 1.909.916 2.558.611.649 1.375.954 2.329.954.879 0 1.642-.343 2.329-.992z" fill="#A1A89D"/></svg>