<svg width="133" height="33" fill="none"><path d="M.001 6.807s3.304 13.565 3.832 15.767c.615 2.57 1.724 3.516 4.922 2.878l2.063-8.41c.523-2.09.874-3.579 1.21-5.704h.059c.236 2.146.572 3.62 1.003 5.711 0 0 .84 3.818 1.27 5.823.431 2.005 1.631 3.268 4.763 2.58L24.04 6.81h-3.97l-1.678 8.06c-.451 2.347-.861 4.18-1.177 6.326h-.056c-.287-2.125-.651-3.885-1.11-6.171L14.3 6.809h-4.135l-1.87 8.008c-.53 2.433-1.025 4.398-1.34 6.472H6.9a227.87 227.87 0 00-1.217-6.778s-1.11-5.728-1.5-7.702H.002v-.002zm37.838 0v18.644h3.78V6.806h-3.78v.001zm53.224 0v13.754c0 1.896.356 3.225 1.118 4.037.666.71 1.763 1.17 3.077 1.17 1.117 0 2.217-.213 2.735-.406l-.05-2.96a5.732 5.732 0 01-1.435.172c-1.287 0-1.719-.826-1.719-2.529v-5.262h3.291v-3.567h-3.29V6.807h-3.727zM29.394 11.13c-2.348 0-4.213.661-5.229 1.25l.744 2.55c.93-.587 2.41-1.073 3.813-1.073 2.321-.006 2.7 1.315 2.7 2.162v.2c-5.058-.007-8.253 1.747-8.253 5.321 0 2.183 1.627 4.228 4.455 4.228 1.741 0 3.197-.695 4.07-1.81h.085s.578 2.42 3.762 1.495c-.167-1.008-.222-2.082-.222-3.376v-4.98c0-3.175-1.352-5.967-5.925-5.967zm22.606 0c-2.365 0-3.428 1.201-4.072 2.22h-.056v-1.904h-3.607v14.007h3.8v-8.214c0-.385.044-.793.178-1.147.314-.827 1.082-1.794 2.309-1.794 1.533 0 2.25 1.298 2.25 3.172v7.983h3.795v-8.314c0-.367.05-.81.158-1.135.312-.94 1.14-1.706 2.28-1.706 1.554 0 2.3 1.275 2.3 3.48v7.675h3.798v-8.25c0-4.35-2.205-6.073-4.694-6.073-1.103 0-1.973.277-2.76.761-.66.407-1.253.984-1.77 1.745h-.056c-.602-1.51-2.014-2.506-3.854-2.506zm20.862 0c-2.348 0-4.212.661-5.23 1.25l.745 2.55c.93-.587 2.411-1.073 3.813-1.073 2.32-.006 2.7 1.315 2.7 2.162v.2c-5.058-.007-8.253 1.747-8.253 5.321 0 2.183 1.627 4.228 4.457 4.228 1.74 0 3.196-.695 4.067-1.81h.086s.578 2.42 3.762 1.495c-.168-1.008-.221-2.082-.221-3.376v-4.98c0-3.175-1.353-5.967-5.926-5.967zm15.776 0c-1.454 0-3.11.941-3.804 2.958h-.106v-2.642h-3.42v14.007h3.898V18.28c0-.387.024-.725.085-1.034.288-1.502 1.435-2.463 3.082-2.463.451 0 .775.05 1.125.1v-3.667a3.75 3.75 0 00-.86-.087zm-57.093 7.572v1.747c0 .258-.023.525-.094.758-.293.97-1.296 1.79-2.55 1.79-1.046 0-1.877-.594-1.877-1.852 0-1.924 2.114-2.456 4.52-2.443zm43.467 0v1.747c0 .258-.023.525-.094.758-.292.97-1.295 1.79-2.55 1.79-1.046 0-1.876-.594-1.876-1.852 0-1.924 2.114-2.456 4.52-2.443zm43.5-18.637c-1.22 0-2.19.683-2.19 1.514l.741 8.405c.082.506.701.897 1.449.897.75 0 1.367-.391 1.451-.897l.744-8.405c0-.831-.972-1.514-2.194-1.514h-.001zm-12.075 6.743c-.633.015-1.352.495-1.81 1.29-.612 1.059-.504 2.242.212 2.657l7.636 3.562c.477.178 1.125-.162 1.5-.81.377-.651.347-1.383-.049-1.708l-6.896-4.846a1.113 1.113 0 00-.592-.145h-.001zm24.149 0a1.11 1.11 0 00-.591.145l-6.897 4.846c-.394.325-.424 1.057-.049 1.708h.001c.376.648 1.022.988 1.499.81l7.638-3.562c.72-.415.823-1.598.215-2.657-.46-.795-1.181-1.275-1.814-1.29h-.002zm-17.826 11.09a.767.767 0 00-.284.047l-7.635 3.558c-.717.417-.825 1.6-.213 2.66.61 1.057 1.686 1.559 2.402 1.145l6.897-4.843c.396-.328.426-1.06.049-1.71h.003c-.305-.53-.791-.852-1.219-.858zm11.507 0c-.428.005-.913.328-1.218.858l.002-.002c-.375.65-.346 1.383.049 1.712l6.897 4.842c.715.414 1.791-.088 2.404-1.145.608-1.06.505-2.243-.214-2.66l-7.636-3.558a.774.774 0 00-.284-.048zm-5.756 3.483c-.748 0-1.365.39-1.447.895l-.741 8.405c0 .832.97 1.513 2.19 1.513 1.222 0 2.193-.681 2.193-1.513l-.742-8.405c-.084-.506-.701-.894-1.451-.895h-.002z" fill="#A1A89D"/></svg>