<svg width="28" height="20" fill="none" xmlns="http://www.w3.org/2000/svg"><path d="M8.178 7.161H7.077l-.6 4.193h.977c.648 0 1.131-.166 1.449-.497.317-.333.53-.886.641-1.661.108-.745.059-1.27-.144-1.576-.204-.305-.61-.459-1.222-.459zM14 .006C6.269.006 0 4.48 0 10s6.269 9.996 14 9.996c7.732 0 14-4.476 14-9.996C28 4.48 21.732.006 14 .006zm-3.803 11.797a2.833 2.833 0 01-1.07.873c-.392.17-.893.26-1.5.26H6.25l-.382 2.661H4.261L5.696 5.581h3.091c.93 0 1.608.33 2.035.994.427.662.555 1.587.385 2.774-.065.47-.185.923-.356 1.341a4.573 4.573 0 01-.654 1.113zm4.694 1.132l.634-4.431c.073-.504.045-.849-.08-1.031-.124-.184-.392-.276-.801-.276H13.37l-.821 5.74h-1.596L12.388 2.92h1.595L13.6 5.582h1.421c.895 0 1.51.213 1.85.635.34.423.441 1.109.307 2.057l-.667 4.662h-1.62zm8.864-3.586a5.55 5.55 0 01-.356 1.341 4.573 4.573 0 01-.655 1.113c-.305.395-.67.693-1.07.873-.392.17-.892.26-1.5.26h-1.377l-.381 2.663h-1.608l1.435-10.017h3.09c.93 0 1.608.331 2.035.995.427.66.557 1.585.387 2.772zm-3.028-2.188h-1.1l-.602 4.193h.978c.65 0 1.132-.166 1.448-.497.318-.333.531-.886.643-1.661.108-.745.057-1.27-.146-1.576-.203-.305-.61-.459-1.221-.459z" fill="#000"/></svg>