<svg width="28" height="32" fill="none" xmlns="http://www.w3.org/2000/svg"><path d="M24.245 5.972c-.114-.011-2.561-.193-2.561-.193l-1.887-1.882c-.187-.188-.551-.132-.693-.089l-.951.294C17.584 2.46 16.583.951 14.82.951c-.049 0-.1.002-.15.005C14.171.291 13.549 0 13.012 0c-4.106 0-5.12 5.16-5.734 7.782-1.596.496-2.82 3.225-2.965 3.27-.892.281-.92.31-1.035 1.153C3.188 12.843 0 28.582 0 28.582L18.16 32 28 29.86S24.546 6.391 24.524 6.23a.308.308 0 00-.279-.26zm-9.709-.923v.179l-3.175.988c.612-2.37 1.756-3.516 2.759-3.947.251.635.416 1.549.416 2.78zM12.9 1.108c.18 0 .356.06.528.178-1.317.622-2.727 2.19-3.323 5.321l-2.509.78C8.293 5 9.95 1.108 12.9 1.108zm.707 13.954s-1.063-.57-2.364-.57c-1.912 0-2.008 1.205-2.008 1.508 0 1.657 4.297 2.292 4.297 6.172 0 3.053-1.926 5.018-4.525 5.018-3.117 0-4.712-1.95-4.712-1.95l.834-2.772s1.639 1.416 3.023 1.416c.902 0 1.27-.716 1.27-1.238 0-2.161-3.525-2.258-3.525-5.81 0-2.986 2.134-5.88 6.444-5.88 1.658 0 2.48.479 2.48.479l-1.214 3.627zm2.007-10.17V4.56c0-1.02-.14-1.841-.367-2.493.908.114 1.514 1.153 1.903 2.348l-1.536.479z" fill="#79B259"/></svg>