<svg width="28" height="28" fill="none" xmlns="http://www.w3.org/2000/svg"><path d="M14 28c7.732 0 14-6.268 14-14S21.732 0 14 0 0 6.268 0 14s6.268 14 14 14z" fill="#4353FF"/><path d="M18.112 12.338l-1.268 3.998c0-.306-.875-6.939-.875-6.939-2.013 0-3.08 1.427-3.64 2.94l-1.55 4.008c0-.289-.218-3.972-.218-3.972a3.272 3.272 0 00-3.176-2.967L9.03 19.451c2.1 0 3.237-1.426 3.824-2.94l1.312-3.412c0 .14.875 6.352.875 6.352a4.042 4.042 0 003.85-2.826l2.975-7.228c-2.1 0-3.202 1.427-3.762 2.94h.008z" fill="#fff"/></svg>