<svg width="76" height="14" fill="none"><path d="M3.798 13L.27.4h2.61l2.412 9.342L7.92.4h2.124l2.646 9.342L15.102.4h2.61L14.184 13h-2.826L8.982 4.684 6.624 13H3.798zm16.136-3.546c.312 1.128 1.158 1.692 2.538 1.692.888 0 1.56-.3 2.016-.9l1.872 1.08c-.888 1.284-2.196 1.926-3.924 1.926-1.488 0-2.682-.45-3.582-1.35-.9-.9-1.35-2.034-1.35-3.402 0-1.356.444-2.484 1.332-3.384.888-.912 2.028-1.368 3.42-1.368 1.32 0 2.406.456 3.258 1.368.864.912 1.296 2.04 1.296 3.384 0 .3-.03.618-.09.954h-6.786zm-.036-1.8h4.59c-.132-.612-.408-1.068-.828-1.368-.408-.3-.876-.45-1.404-.45-.624 0-1.14.162-1.548.486-.408.312-.678.756-.81 1.332zM33.67 3.748c1.212 0 2.244.462 3.096 1.386.864.912 1.296 2.034 1.296 3.366 0 1.332-.432 2.46-1.296 3.384-.852.912-1.884 1.368-3.096 1.368-1.26 0-2.232-.438-2.916-1.314V13h-2.322V.4h2.322v4.662c.684-.876 1.656-1.314 2.916-1.314zm-2.214 6.588c.468.468 1.062.702 1.782.702s1.314-.234 1.782-.702c.48-.48.72-1.092.72-1.836s-.24-1.35-.72-1.818c-.468-.48-1.062-.72-1.782-.72s-1.314.24-1.782.72c-.468.468-.702 1.074-.702 1.818s.234 1.356.702 1.836zm9.953 2.448c-.3.3-.66.45-1.08.45-.42 0-.78-.15-1.08-.45-.3-.3-.45-.66-.45-1.08 0-.42.15-.78.45-1.08.3-.3.66-.45 1.08-.45.42 0 .78.15 1.08.45.3.3.45.66.45 1.08 0 .42-.15.78-.45 1.08zM48.906.4c1.728 0 3.168.606 4.32 1.818C54.39 3.43 54.972 4.924 54.972 6.7c0 1.776-.582 3.27-1.746 4.482C52.074 12.394 50.634 13 48.906 13h-5.004V.4h5.004zm0 10.224c1.092 0 1.98-.36 2.664-1.08.684-.732 1.026-1.68 1.026-2.844s-.342-2.106-1.026-2.826c-.684-.732-1.572-1.098-2.664-1.098h-2.52v7.848h2.52zm9.683-1.17c.312 1.128 1.157 1.692 2.538 1.692.887 0 1.56-.3 2.015-.9l1.872 1.08c-.888 1.284-2.195 1.926-3.923 1.926-1.489 0-2.683-.45-3.583-1.35-.9-.9-1.35-2.034-1.35-3.402 0-1.356.444-2.484 1.332-3.384.889-.912 2.029-1.368 3.42-1.368 1.32 0 2.407.456 3.258 1.368.864.912 1.296 2.04 1.296 3.384 0 .3-.03.618-.09.954H58.59zm-.036-1.8h4.59c-.133-.612-.409-1.068-.828-1.368a2.31 2.31 0 00-1.404-.45c-.625 0-1.14.162-1.549.486-.407.312-.678.756-.81 1.332zM72.656 4h2.556l-3.42 9h-2.646l-3.42-9h2.556l2.178 6.3L72.656 4z" fill="#313131"/></svg>